<svg width="211" height="102" viewBox="0 0 211 102" fill="none" xmlns="http://www.w3.org/2000/svg">
<rect width="211" height="102" fill="#D9D9D9"/>
<path d="M50.0547 68.1699V74H28.6387V68.1699H50.0547ZM30.6895 31.3438V74H23.3359V31.3438H30.6895ZM87.8184 51.5V53.8438C87.8184 57.0664 87.3984 59.957 86.5586 62.5156C85.7188 65.0742 84.5176 67.252 82.9551 69.0488C81.4121 70.8457 79.5566 72.2227 77.3887 73.1797C75.2207 74.1172 72.8184 74.5859 70.1816 74.5859C67.5645 74.5859 65.1719 74.1172 63.0039 73.1797C60.8555 72.2227 58.9902 70.8457 57.4082 69.0488C55.8262 67.252 54.5957 65.0742 53.7168 62.5156C52.8574 59.957 52.4277 57.0664 52.4277 53.8438V51.5C52.4277 48.2773 52.8574 45.3965 53.7168 42.8574C54.5762 40.2988 55.7871 38.1211 57.3496 36.3242C58.9316 34.5078 60.7969 33.1309 62.9453 32.1934C65.1133 31.2363 67.5059 30.7578 70.123 30.7578C72.7598 30.7578 75.1621 31.2363 77.3301 32.1934C79.498 33.1309 81.3633 34.5078 82.9258 36.3242C84.4883 38.1211 85.6895 40.2988 86.5293 42.8574C87.3887 45.3965 87.8184 48.2773 87.8184 51.5ZM80.4648 53.8438V51.4414C80.4648 49.0586 80.2305 46.959 79.7617 45.1426C79.3125 43.3066 78.6387 41.7734 77.7402 40.543C76.8613 39.293 75.7773 38.3555 74.4883 37.7305C73.1992 37.0859 71.7441 36.7637 70.123 36.7637C68.502 36.7637 67.0566 37.0859 65.7871 37.7305C64.5176 38.3555 63.4336 39.293 62.5352 40.543C61.6562 41.7734 60.9824 43.3066 60.5137 45.1426C60.0449 46.959 59.8105 49.0586 59.8105 51.4414V53.8438C59.8105 56.2266 60.0449 58.3359 60.5137 60.1719C60.9824 62.0078 61.666 63.5605 62.5645 64.8301C63.4824 66.0801 64.5762 67.0273 65.8457 67.6719C67.1152 68.2969 68.5605 68.6094 70.1816 68.6094C71.8223 68.6094 73.2773 68.2969 74.5469 67.6719C75.8164 67.0273 76.8906 66.0801 77.7695 64.8301C78.6484 63.5605 79.3125 62.0078 79.7617 60.1719C80.2305 58.3359 80.4648 56.2266 80.4648 53.8438ZM127.926 52.2031V68.4922C127.32 69.293 126.373 70.1719 125.084 71.1289C123.814 72.0664 122.125 72.877 120.016 73.5605C117.906 74.2441 115.279 74.5859 112.135 74.5859C109.459 74.5859 107.008 74.1367 104.781 73.2383C102.555 72.3203 100.631 70.9824 99.0098 69.2246C97.4082 67.4668 96.168 65.3281 95.2891 62.8086C94.4102 60.2695 93.9707 57.3789 93.9707 54.1367V51.1777C93.9707 47.9551 94.3711 45.084 95.1719 42.5645C95.9922 40.0254 97.1641 37.877 98.6875 36.1191C100.211 34.3613 102.047 33.0332 104.195 32.1348C106.363 31.2168 108.814 30.7578 111.549 30.7578C115.045 30.7578 117.936 31.3438 120.221 32.5156C122.525 33.668 124.303 35.2695 125.553 37.3203C126.803 39.3711 127.594 41.7148 127.926 44.3516H120.719C120.484 42.8672 120.025 41.5391 119.342 40.3672C118.678 39.1953 117.721 38.2773 116.471 37.6133C115.24 36.9297 113.639 36.5879 111.666 36.5879C109.967 36.5879 108.473 36.9102 107.184 37.5547C105.895 38.1992 104.82 39.1465 103.961 40.3965C103.121 41.6465 102.486 43.1699 102.057 44.9668C101.627 46.7637 101.412 48.8145 101.412 51.1191V54.1367C101.412 56.4805 101.656 58.5605 102.145 60.377C102.652 62.1934 103.375 63.7266 104.312 64.9766C105.27 66.2266 106.432 67.1738 107.799 67.8184C109.166 68.4434 110.709 68.7559 112.428 68.7559C114.107 68.7559 115.484 68.6191 116.559 68.3457C117.633 68.0527 118.482 67.7109 119.107 67.3203C119.752 66.9102 120.25 66.5195 120.602 66.1484V57.6816H111.725V52.2031H127.926ZM170.084 51.5V53.8438C170.084 57.0664 169.664 59.957 168.824 62.5156C167.984 65.0742 166.783 67.252 165.221 69.0488C163.678 70.8457 161.822 72.2227 159.654 73.1797C157.486 74.1172 155.084 74.5859 152.447 74.5859C149.83 74.5859 147.438 74.1172 145.27 73.1797C143.121 72.2227 141.256 70.8457 139.674 69.0488C138.092 67.252 136.861 65.0742 135.982 62.5156C135.123 59.957 134.693 57.0664 134.693 53.8438V51.5C134.693 48.2773 135.123 45.3965 135.982 42.8574C136.842 40.2988 138.053 38.1211 139.615 36.3242C141.197 34.5078 143.062 33.1309 145.211 32.1934C147.379 31.2363 149.771 30.7578 152.389 30.7578C155.025 30.7578 157.428 31.2363 159.596 32.1934C161.764 33.1309 163.629 34.5078 165.191 36.3242C166.754 38.1211 167.955 40.2988 168.795 42.8574C169.654 45.3965 170.084 48.2773 170.084 51.5ZM162.73 53.8438V51.4414C162.73 49.0586 162.496 46.959 162.027 45.1426C161.578 43.3066 160.904 41.7734 160.006 40.543C159.127 39.293 158.043 38.3555 156.754 37.7305C155.465 37.0859 154.01 36.7637 152.389 36.7637C150.768 36.7637 149.322 37.0859 148.053 37.7305C146.783 38.3555 145.699 39.293 144.801 40.543C143.922 41.7734 143.248 43.3066 142.779 45.1426C142.311 46.959 142.076 49.0586 142.076 51.4414V53.8438C142.076 56.2266 142.311 58.3359 142.779 60.1719C143.248 62.0078 143.932 63.5605 144.83 64.8301C145.748 66.0801 146.842 67.0273 148.111 67.6719C149.381 68.2969 150.826 68.6094 152.447 68.6094C154.088 68.6094 155.543 68.2969 156.812 67.6719C158.082 67.0273 159.156 66.0801 160.035 64.8301C160.914 63.5605 161.578 62.0078 162.027 60.1719C162.496 58.3359 162.73 56.2266 162.73 53.8438Z" fill="#7A7171"/>
</svg>
